<?xml version="1.0" encoding="UTF-8" standalone="no"?>
<svg
   xmlns:dc="http://purl.org/dc/elements/1.1/"
   xmlns:cc="http://creativecommons.org/ns#"
   xmlns:rdf="http://www.w3.org/1999/02/22-rdf-syntax-ns#"
   xmlns:svg="http://www.w3.org/2000/svg"
   xmlns="http://www.w3.org/2000/svg"
   xmlns:sodipodi="http://sodipodi.sourceforge.net/DTD/sodipodi-0.dtd"
   xmlns:inkscape="http://www.inkscape.org/namespaces/inkscape"
   viewBox="0.0 0.0 348.0 348.0"
   fill="none"
   id="svg2"
   version="1.1"
   inkscape:version="0.91 r13725"
   sodipodi:docname="Countdown.svg">
  <metadata
     id="metadata12">
    <rdf:RDF>
      <cc:Work
         rdf:about="">
        <dc:format>image/svg+xml</dc:format>
        <dc:type
           rdf:resource="http://purl.org/dc/dcmitype/StillImage" />
      </cc:Work>
    </rdf:RDF>
  </metadata>
  <defs
     id="defs10" />
  <sodipodi:namedview
     pagecolor="#ffffff"
     bordercolor="#666666"
     borderopacity="1"
     objecttolerance="10"
     gridtolerance="10"
     guidetolerance="10"
     inkscape:pageopacity="0"
     inkscape:pageshadow="2"
     inkscape:window-width="1440"
     inkscape:window-height="785"
     id="namedview8"
     showgrid="false"
     inkscape:zoom="1.3563218"
     inkscape:cx="147.67226"
     inkscape:cy="158.07491"
     inkscape:window-x="0"
     inkscape:window-y="1"
     inkscape:window-maximized="1"
     inkscape:current-layer="svg2" />
  <path
     d="M5.079 5.776h336.913v337.67H5.08z"
     stroke-width="2"
     stroke="#000"
     id="path4" />
  <path
     d="M282.734 40.554c0-8.376 6.966-15.165 15.56-15.165 4.126 0 8.084 1.597 11.001 4.441 2.918 2.844 4.558 6.702 4.558 10.724 0 8.376-6.966 15.165-15.56 15.165-8.593 0-15.559-6.79-15.559-15.165z"
     stroke-width="2"
     stroke="#000"
     id="path6" />
  <path
     id="path4140"
     d="m 18.496136,58.876033 c 0,-18.308796 15.226729,-33.148627 34.012043,-33.148627 9.018875,0 17.670525,3.490825 24.04669,9.707423 6.378352,6.216596 9.963168,14.64966 9.963168,23.441204 0,18.308798 -15.226728,33.148628 -34.012042,33.148628 -18.78313,0 -34.009859,-14.842016 -34.009859,-33.148628 z"
     inkscape:connector-curvature="0"
     style="stroke:#000000;stroke-width:4.37172794" />
  <path
     style="fill:#ffffff;fill-opacity:1;fill-rule:evenodd;stroke:#000000;stroke-width:2.68986225;stroke-linecap:butt;stroke-linejoin:miter;stroke-miterlimit:4;stroke-dasharray:none;stroke-opacity:1"
     d="m 123.70933,27.861879 116.80166,0 0,65.191491 -116.80166,0 z"
     id="rect4142" />
  <g
     style="font-style:normal;font-weight:normal;font-size:40px;line-height:125%;font-family:sans-serif;letter-spacing:0px;word-spacing:0px;fill:#000000;fill-opacity:1;stroke:none;stroke-width:1px;stroke-linecap:butt;stroke-linejoin:miter;stroke-opacity:1"
     id="text4144">
    <path
       d="m 163.68643,61.451271 -4.6875,0 0.6875,-5.875 5.5,0 0,-6.25 -4.75,0 1.6875,-13.875 -5.25,0 -1.625,13.875 -4.6875,0 1.625,-13.875 -5.1875,0 -1.6875,13.875 -5.9375,0 0,6.25 5.25,0 -0.6875,5.875 -6.125,0 0,6.25 5.3125,0 -1.75,14.875 5.25,0 1.8125,-14.875 4.625,0 -1.75,14.875 5.1875,0 1.8125,-14.875 5.375,0 0,-6.25 z m -9.1875,-5.875 -0.75,5.875 -4.5625,0 0.6875,-5.875 4.625,0 z"
       style="font-style:normal;font-variant:normal;font-weight:bold;font-stretch:condensed;font-size:62.5px;font-family:'Futura Condensed';-inkscape-font-specification:'Futura Condensed, Bold Condensed'"
       id="path4168" />
    <path
       d="m 194.20401,61.451271 -4.6875,0 0.6875,-5.875 5.5,0 0,-6.25 -4.75,0 1.6875,-13.875 -5.25,0 -1.625,13.875 -4.6875,0 1.625,-13.875 -5.1875,0 -1.6875,13.875 -5.9375,0 0,6.25 5.25,0 -0.6875,5.875 -6.125,0 0,6.25 5.3125,0 -1.75,14.875 5.25,0 1.8125,-14.875 4.625,0 -1.75,14.875 5.1875,0 1.8125,-14.875 5.375,0 0,-6.25 z m -9.1875,-5.875 -0.75,5.875 -4.5625,0 0.6875,-5.875 4.625,0 z"
       style="font-style:normal;font-variant:normal;font-weight:bold;font-stretch:condensed;font-size:62.5px;font-family:'Futura Condensed';-inkscape-font-specification:'Futura Condensed, Bold Condensed'"
       id="path4170" />
    <path
       d="m 224.72159,61.451271 -4.6875,0 0.6875,-5.875 5.5,0 0,-6.25 -4.75,0 1.6875,-13.875 -5.25,0 -1.625,13.875 -4.6875,0 1.625,-13.875 -5.1875,0 -1.6875,13.875 -5.9375,0 0,6.25 5.25,0 -0.6875,5.875 -6.125,0 0,6.25 5.3125,0 -1.75,14.875 5.25,0 1.8125,-14.875 4.625,0 -1.75,14.875 5.1875,0 1.8125,-14.875 5.375,0 0,-6.25 z m -9.1875,-5.875 -0.75,5.875 -4.5625,0 0.6875,-5.875 4.625,0 z"
       style="font-style:normal;font-variant:normal;font-weight:bold;font-stretch:condensed;font-size:62.5px;font-family:'Futura Condensed';-inkscape-font-specification:'Futura Condensed, Bold Condensed'"
       id="path4172" />
  </g>
  <path
     style="fill:#ffffff;fill-opacity:1;fill-rule:evenodd;stroke:#000000;stroke-width:1.8253597;stroke-linecap:butt;stroke-linejoin:miter;stroke-miterlimit:4;stroke-dasharray:none;stroke-opacity:1"
     d="m 15.336409,104.60759 44.411929,0 0,44.41193 -44.411929,0 z"
     id="rect4190"
     inkscape:connector-curvature="0" />
  <g
     style="font-style:normal;font-weight:normal;font-size:40px;line-height:125%;font-family:sans-serif;letter-spacing:0px;word-spacing:0px;fill:#000000;fill-opacity:1;stroke:none;stroke-width:1px;stroke-linecap:butt;stroke-linejoin:miter;stroke-opacity:1"
     id="text4192"
     transform="matrix(0.91267983,0,0,0.91267983,-12.925729,2.9797618)">
    <path
       inkscape:connector-curvature="0"
       d="m 64.762711,137.93051 -3.75,0 0.55,-4.7 4.4,0 0,-5 -3.8,0 1.35,-11.1 -4.2,0 -1.3,11.1 -3.75,0 1.3,-11.1 -4.15,0 -1.35,11.1 -4.75,0 0,5 4.2,0 -0.55,4.7 -4.9,0 0,5 4.25,0 -1.4,11.9 4.2,0 1.45,-11.9 3.7,0 -1.4,11.9 4.15,0 1.45,-11.9 4.3,0 0,-5 z m -7.35,-4.7 -0.6,4.7 -3.65,0 0.55,-4.7 3.7,0 z"
       style="font-style:normal;font-variant:normal;font-weight:bold;font-stretch:condensed;font-size:50px;font-family:'Futura Condensed';-inkscape-font-specification:'Futura Condensed, Bold Condensed'"
       id="path4197" />
  </g>
  <g
     id="g4214"
     transform="matrix(0.91267983,0,0,0.91267983,41.83506,0.97976182)">
    <path
       inkscape:connector-curvature="0"
       id="rect4216"
       d="m 30.966103,113.54237 48.661018,0 0,48.66102 -48.661018,0 z"
       style="fill:#ffffff;fill-opacity:1;fill-rule:evenodd;stroke:#000000;stroke-width:2;stroke-linecap:butt;stroke-linejoin:miter;stroke-miterlimit:4;stroke-dasharray:none;stroke-opacity:1" />
  </g>
  <g
     id="g4218"
     style="font-style:normal;font-weight:normal;font-size:40px;line-height:125%;font-family:sans-serif;letter-spacing:0px;word-spacing:0px;fill:#000000;fill-opacity:1;stroke:none;stroke-width:1px;stroke-linecap:butt;stroke-linejoin:miter;stroke-opacity:1"
     transform="matrix(0.91267983,0,0,0.91267983,41.83506,2.9797618)">
    <path
       inkscape:connector-curvature="0"
       id="path4220"
       style="font-style:normal;font-variant:normal;font-weight:bold;font-stretch:condensed;font-size:50px;font-family:'Futura Condensed';-inkscape-font-specification:'Futura Condensed, Bold Condensed'"
       d="m 64.762711,137.93051 -3.75,0 0.55,-4.7 4.4,0 0,-5 -3.8,0 1.35,-11.1 -4.2,0 -1.3,11.1 -3.75,0 1.3,-11.1 -4.15,0 -1.35,11.1 -4.75,0 0,5 4.2,0 -0.55,4.7 -4.9,0 0,5 4.25,0 -1.4,11.9 4.2,0 1.45,-11.9 3.7,0 -1.4,11.9 4.15,0 1.45,-11.9 4.3,0 0,-5 z m -7.35,-4.7 -0.6,4.7 -3.65,0 0.55,-4.7 3.7,0 z" />
  </g>
  <g
     id="g4224"
     transform="matrix(0.91267983,0,0,0.91267983,96.595853,0.97976182)">
    <path
       inkscape:connector-curvature="0"
       id="rect4226"
       d="m 30.966103,113.54237 48.661018,0 0,48.66102 -48.661018,0 z"
       style="fill:#ffffff;fill-opacity:1;fill-rule:evenodd;stroke:#000000;stroke-width:2;stroke-linecap:butt;stroke-linejoin:miter;stroke-miterlimit:4;stroke-dasharray:none;stroke-opacity:1" />
  </g>
  <g
     style="font-style:normal;font-weight:normal;font-size:40px;line-height:125%;font-family:sans-serif;letter-spacing:0px;word-spacing:0px;fill:#000000;fill-opacity:1;stroke:none;stroke-width:1px;stroke-linecap:butt;stroke-linejoin:miter;stroke-opacity:1"
     id="g4228"
     transform="matrix(0.91267983,0,0,0.91267983,96.595853,2.9797618)">
    <path
       d="m 64.762711,137.93051 -3.75,0 0.55,-4.7 4.4,0 0,-5 -3.8,0 1.35,-11.1 -4.2,0 -1.3,11.1 -3.75,0 1.3,-11.1 -4.15,0 -1.35,11.1 -4.75,0 0,5 4.2,0 -0.55,4.7 -4.9,0 0,5 4.25,0 -1.4,11.9 4.2,0 1.45,-11.9 3.7,0 -1.4,11.9 4.15,0 1.45,-11.9 4.3,0 0,-5 z m -7.35,-4.7 -0.6,4.7 -3.65,0 0.55,-4.7 3.7,0 z"
       style="font-style:normal;font-variant:normal;font-weight:bold;font-stretch:condensed;font-size:50px;font-family:'Futura Condensed';-inkscape-font-specification:'Futura Condensed, Bold Condensed'"
       id="path4230"
       inkscape:connector-curvature="0" />
  </g>
  <g
     id="g4264"
     transform="matrix(0.91267983,0,0,0.91267983,151.35664,0.97976182)">
    <path
       inkscape:connector-curvature="0"
       id="rect4266"
       d="m 30.966103,113.54237 48.661018,0 0,48.66102 -48.661018,0 z"
       style="fill:#ffffff;fill-opacity:1;fill-rule:evenodd;stroke:#000000;stroke-width:2;stroke-linecap:butt;stroke-linejoin:miter;stroke-miterlimit:4;stroke-dasharray:none;stroke-opacity:1" />
  </g>
  <g
     id="g4268"
     style="font-style:normal;font-weight:normal;font-size:40px;line-height:125%;font-family:sans-serif;letter-spacing:0px;word-spacing:0px;fill:#000000;fill-opacity:1;stroke:none;stroke-width:1px;stroke-linecap:butt;stroke-linejoin:miter;stroke-opacity:1"
     transform="matrix(0.91267983,0,0,0.91267983,151.35664,2.9797618)">
    <path
       inkscape:connector-curvature="0"
       id="path4270"
       style="font-style:normal;font-variant:normal;font-weight:bold;font-stretch:condensed;font-size:50px;font-family:'Futura Condensed';-inkscape-font-specification:'Futura Condensed, Bold Condensed'"
       d="m 64.762711,137.93051 -3.75,0 0.55,-4.7 4.4,0 0,-5 -3.8,0 1.35,-11.1 -4.2,0 -1.3,11.1 -3.75,0 1.3,-11.1 -4.15,0 -1.35,11.1 -4.75,0 0,5 4.2,0 -0.55,4.7 -4.9,0 0,5 4.25,0 -1.4,11.9 4.2,0 1.45,-11.9 3.7,0 -1.4,11.9 4.15,0 1.45,-11.9 4.3,0 0,-5 z m -7.35,-4.7 -0.6,4.7 -3.65,0 0.55,-4.7 3.7,0 z" />
  </g>
  <g
     id="g4274"
     transform="matrix(0.91267983,0,0,0.91267983,206.11743,0.97976182)">
    <path
       inkscape:connector-curvature="0"
       id="rect4276"
       d="m 30.966103,113.54237 48.661018,0 0,48.66102 -48.661018,0 z"
       style="fill:#ffffff;fill-opacity:1;fill-rule:evenodd;stroke:#000000;stroke-width:2;stroke-linecap:butt;stroke-linejoin:miter;stroke-miterlimit:4;stroke-dasharray:none;stroke-opacity:1" />
  </g>
  <g
     style="font-style:normal;font-weight:normal;font-size:40px;line-height:125%;font-family:sans-serif;letter-spacing:0px;word-spacing:0px;fill:#000000;fill-opacity:1;stroke:none;stroke-width:1px;stroke-linecap:butt;stroke-linejoin:miter;stroke-opacity:1"
     id="g4278"
     transform="matrix(0.91267983,0,0,0.91267983,206.11743,2.9797618)">
    <path
       d="m 64.762711,137.93051 -3.75,0 0.55,-4.7 4.4,0 0,-5 -3.8,0 1.35,-11.1 -4.2,0 -1.3,11.1 -3.75,0 1.3,-11.1 -4.15,0 -1.35,11.1 -4.75,0 0,5 4.2,0 -0.55,4.7 -4.9,0 0,5 4.25,0 -1.4,11.9 4.2,0 1.45,-11.9 3.7,0 -1.4,11.9 4.15,0 1.45,-11.9 4.3,0 0,-5 z m -7.35,-4.7 -0.6,4.7 -3.65,0 0.55,-4.7 3.7,0 z"
       style="font-style:normal;font-variant:normal;font-weight:bold;font-stretch:condensed;font-size:50px;font-family:'Futura Condensed';-inkscape-font-specification:'Futura Condensed, Bold Condensed'"
       id="path4280"
       inkscape:connector-curvature="0" />
  </g>
  <g
     id="g4284"
     transform="matrix(0.91267983,0,0,0.91267983,260.87822,0.97976182)">
    <path
       inkscape:connector-curvature="0"
       id="rect4286"
       d="m 30.966103,113.54237 48.661018,0 0,48.66102 -48.661018,0 z"
       style="fill:#ffffff;fill-opacity:1;fill-rule:evenodd;stroke:#000000;stroke-width:2;stroke-linecap:butt;stroke-linejoin:miter;stroke-miterlimit:4;stroke-dasharray:none;stroke-opacity:1" />
  </g>
  <g
     id="g4288"
     style="font-style:normal;font-weight:normal;font-size:40px;line-height:125%;font-family:sans-serif;letter-spacing:0px;word-spacing:0px;fill:#000000;fill-opacity:1;stroke:none;stroke-width:1px;stroke-linecap:butt;stroke-linejoin:miter;stroke-opacity:1"
     transform="matrix(0.91267983,0,0,0.91267983,260.87822,2.9797618)">
    <path
       inkscape:connector-curvature="0"
       id="path4290"
       style="font-style:normal;font-variant:normal;font-weight:bold;font-stretch:condensed;font-size:50px;font-family:'Futura Condensed';-inkscape-font-specification:'Futura Condensed, Bold Condensed'"
       d="m 64.762711,137.93051 -3.75,0 0.55,-4.7 4.4,0 0,-5 -3.8,0 1.35,-11.1 -4.2,0 -1.3,11.1 -3.75,0 1.3,-11.1 -4.15,0 -1.35,11.1 -4.75,0 0,5 4.2,0 -0.55,4.7 -4.9,0 0,5 4.25,0 -1.4,11.9 4.2,0 1.45,-11.9 3.7,0 -1.4,11.9 4.15,0 1.45,-11.9 4.3,0 0,-5 z m -7.35,-4.7 -0.6,4.7 -3.65,0 0.55,-4.7 3.7,0 z" />
  </g>
  <g
     id="g4300"
     transform="matrix(0.91267983,0,0,0.91267983,41.83506,186.87787)">
    <path
       inkscape:connector-curvature="0"
       style="fill:#ffffff;fill-opacity:1;fill-rule:evenodd;stroke:#000000;stroke-width:2;stroke-linecap:butt;stroke-linejoin:miter;stroke-miterlimit:4;stroke-dasharray:none;stroke-opacity:1"
       d="m 30.966103,113.54237 48.661018,0 0,48.66102 -48.661018,0 z"
       id="path4302" />
  </g>
  <g
     style="font-style:normal;font-weight:normal;font-size:40px;line-height:125%;font-family:sans-serif;letter-spacing:0px;word-spacing:0px;fill:#000000;fill-opacity:1;stroke:none;stroke-width:1px;stroke-linecap:butt;stroke-linejoin:miter;stroke-opacity:1"
     id="g4304"
     transform="matrix(0.91267983,0,0,0.91267983,41.83506,186.87787)" />
  <g
     id="g4310"
     transform="matrix(0.91267983,0,0,0.91267983,96.595853,186.87787)">
    <path
       inkscape:connector-curvature="0"
       style="fill:#ffffff;fill-opacity:1;fill-rule:evenodd;stroke:#000000;stroke-width:2;stroke-linecap:butt;stroke-linejoin:miter;stroke-miterlimit:4;stroke-dasharray:none;stroke-opacity:1"
       d="m 30.966103,113.54237 48.661018,0 0,48.66102 -48.661018,0 z"
       id="path4312" />
  </g>
  <g
     id="g4320"
     transform="matrix(0.91267983,0,0,0.91267983,151.35664,186.87787)">
    <path
       inkscape:connector-curvature="0"
       style="fill:#ffffff;fill-opacity:1;fill-rule:evenodd;stroke:#000000;stroke-width:2;stroke-linecap:butt;stroke-linejoin:miter;stroke-miterlimit:4;stroke-dasharray:none;stroke-opacity:1"
       d="m 30.966103,113.54237 48.661018,0 0,48.66102 -48.661018,0 z"
       id="path4322" />
  </g>
  <g
     id="g4330"
     transform="matrix(0.91267983,0,0,0.91267983,206.11743,186.87787)">
    <path
       inkscape:connector-curvature="0"
       style="fill:#ffffff;fill-opacity:1;fill-rule:evenodd;stroke:#000000;stroke-width:2;stroke-linecap:butt;stroke-linejoin:miter;stroke-miterlimit:4;stroke-dasharray:none;stroke-opacity:1"
       d="m 30.966103,113.54237 48.661018,0 0,48.66102 -48.661018,0 z"
       id="path4332" />
  </g>
  <g
     transform="matrix(0.91267983,0,0,0.91267983,42.336464,188.05597)"
     id="g4384"
     style="font-style:normal;font-weight:normal;font-size:40px;line-height:125%;font-family:sans-serif;letter-spacing:0px;word-spacing:0px;fill:#000000;fill-opacity:1;stroke:none;stroke-width:1px;stroke-linecap:butt;stroke-linejoin:miter;stroke-opacity:1">
    <g
       style="font-style:normal;font-weight:normal;font-size:43.82698059px;line-height:125%;font-family:sans-serif;letter-spacing:0px;word-spacing:0px;fill:#000000;fill-opacity:1;stroke:none;stroke-width:1px;stroke-linecap:butt;stroke-linejoin:miter;stroke-opacity:1"
       id="text4388">
      <path
         d="m 50.593566,132.81426 -11.573062,0 0,7.53276 11.573062,0 0,13.28506 7.532762,0 0,-13.28506 11.64154,0 0,-7.53276 -11.64154,0 0,-12.87417 -7.532762,0 0,12.87417 z"
         style="font-style:normal;font-variant:normal;font-weight:bold;font-stretch:condensed;font-size:68.4796524px;font-family:'Futura Condensed';-inkscape-font-specification:'Futura Condensed, Bold Condensed'"
         id="path4414" />
    </g>
    <g
       style="font-style:normal;font-weight:normal;font-size:43.82698059px;line-height:125%;font-family:sans-serif;letter-spacing:0px;word-spacing:0px;fill:#000000;fill-opacity:1;stroke:none;stroke-width:1px;stroke-linecap:butt;stroke-linejoin:miter;stroke-opacity:1"
       id="text4392">
      <path
         d="m 105.6011,132.066 0,9.1078 17.11991,0 0,-9.1078 -17.11991,0 z"
         style="font-style:normal;font-variant:normal;font-weight:bold;font-stretch:condensed;font-size:68.4796524px;font-family:'Futura Condensed';-inkscape-font-specification:'Futura Condensed, Bold Condensed'"
         id="path4411" />
    </g>
    <g
       style="font-style:normal;font-weight:normal;font-size:43.82698059px;line-height:125%;font-family:sans-serif;letter-spacing:0px;word-spacing:0px;fill:#000000;fill-opacity:1;stroke:none;stroke-width:1px;stroke-linecap:butt;stroke-linejoin:miter;stroke-opacity:1"
       id="text4396">
      <path
         d="m 184.38275,152.12554 5.34141,-5.34141 -10.20346,-10.20347 10.20346,-10.20347 -5.34141,-5.34141 -10.20347,10.20347 -9.86107,-9.86107 -5.34141,5.34141 9.86107,9.86107 -9.86107,9.86107 5.34141,5.34141 9.86107,-9.86107 10.20347,10.20347 z"
         style="font-style:normal;font-variant:normal;font-weight:bold;font-stretch:condensed;font-size:68.4796524px;font-family:'Futura Condensed';-inkscape-font-specification:'Futura Condensed, Bold Condensed'"
         id="path4408" />
    </g>
    <g
       style="font-style:normal;font-weight:normal;font-size:43.82698059px;line-height:125%;font-family:sans-serif;letter-spacing:0px;word-spacing:0px;fill:#000000;fill-opacity:1;stroke:none;stroke-width:1px;stroke-linecap:butt;stroke-linejoin:miter;stroke-opacity:1"
       id="text4400">
      <path
         d="m 218.95495,140.91827 30.74736,0 0,-7.53276 -30.74736,0 0,7.53276 z m 19.65366,-12.53178 0,-7.87516 -8.69692,0 0,7.87516 8.69692,0 z m 0,25.40595 0,-7.87516 -8.69692,0 0,7.87516 8.69692,0 z"
         style="font-style:normal;font-variant:normal;font-weight:bold;font-stretch:condensed;font-size:68.4796524px;font-family:'Futura Condensed';-inkscape-font-specification:'Futura Condensed, Bold Condensed'"
         id="path4405" />
    </g>
  </g>
</svg>
